<svg width="20" height="30" viewBox="0 0 20 30" fill="none" xmlns="http://www.w3.org/2000/svg">
<path d="M2.36699 0.000367463C1.90899 -0.00784659 1.45968 0.121827 1.08122 0.371445C0.702762 0.621062 0.41388 0.978281 0.254544 1.39367C0.0952083 1.80906 0.0732984 2.26208 0.191848 2.69004C0.310397 3.118 0.563544 3.49974 0.916257 3.78244L14.4148 14.9593L0.907918 26.1362C0.661161 26.3101 0.45437 26.5317 0.300596 26.7869C0.146822 27.042 0.049404 27.3253 0.0144897 27.6187C-0.0204246 27.9121 0.00792334 28.2093 0.097744 28.4916C0.187565 28.7739 0.336908 29.0351 0.536349 29.2587C0.73579 29.4824 0.980998 29.6636 1.2565 29.791C1.532 29.9184 1.83181 29.9892 2.13701 29.9988C2.44221 30.0085 2.74617 29.9569 3.02971 29.8473C3.31325 29.7376 3.57021 29.5723 3.78438 29.3618L19.2255 16.5963C19.4684 16.3957 19.6634 16.1465 19.7971 15.866C19.9308 15.5855 20 15.2803 20 14.9714C20 14.6625 19.9308 14.3573 19.7971 14.0768C19.6634 13.7962 19.4684 13.5471 19.2255 13.3465L3.78438 0.540662C3.39308 0.20373 2.89074 0.0122408 2.36699 0.000367463Z" fill="#4E4E4E"/>
</svg>
