<svg width="15" height="25" viewBox="0 0 15 25" fill="none" xmlns="http://www.w3.org/2000/svg">
<path d="M13.7499 25C13.5857 25.0002 13.4232 24.9708 13.2715 24.9137C13.1198 24.8565 12.9821 24.7727 12.8662 24.667L0.366366 13.3034C0.250223 13.198 0.158084 13.0727 0.0952205 12.9349C0.0323565 12.797 0 12.6493 0 12.5C0 12.3508 0.0323565 12.203 0.0952205 12.0652C0.158084 11.9273 0.250223 11.8021 0.366366 11.6966L12.8662 0.333025C13.3546 -0.111008 14.1455 -0.111008 14.6336 0.333025C15.1218 0.777057 15.1221 1.49609 14.6336 1.93984L3.01757 12.5L14.6336 23.0602C14.7498 23.1657 14.8419 23.2909 14.9048 23.4288C14.9676 23.5666 15 23.7144 15 23.8636C15 24.0129 14.9676 24.1606 14.9048 24.2985C14.8419 24.4363 14.7498 24.5616 14.6336 24.667C14.5177 24.7727 14.38 24.8565 14.2283 24.9137C14.0766 24.9708 13.9141 25.0002 13.7499 25Z" fill="white"/>
</svg>
