<svg width="10" height="10" viewBox="0 0 10 10" fill="none" xmlns="http://www.w3.org/2000/svg">
<path d="M1.1233 7.01211C1.02916 6.29447 1.28685 5.47598 1.69053 5.02632C2.19055 4.46932 2.25849 4.02046 2.20983 3.41201C2.20113 3.30306 2.31413 3.23142 2.39342 3.29716C2.89757 3.71499 3.09868 4.67344 2.89265 5.40597C2.86654 5.49877 2.94114 5.58886 3.02722 5.56786C3.2103 5.52319 3.47353 5.40283 3.60911 5.07905C3.6341 5.0194 3.69462 4.98616 3.75094 5.0077C4.03584 5.11677 4.26248 5.40022 4.40858 5.76985C4.71801 5.28348 4.98839 4.74101 5.23801 4.21183C5.04749 3.78104 4.75965 3.36084 4.35049 2.98457C2.98206 1.7262 3.30645 0.626971 3.52723 0.188918C3.57322 0.0977024 3.50449 -0.0128296 3.41068 0.00121458C2.9591 0.0688471 2.00533 0.416884 1.78408 2.135C1.78363 2.13854 1.7836 2.14216 1.78319 2.14571C1.50222 1.8736 1.10084 1.82322 0.787806 1.83537C0.668639 1.84 0.633569 2.01929 0.740648 2.07709C2.009 2.76183 0.390343 4.1152 0.093937 5.26809C-0.0780192 5.93692 0.00459975 6.43544 0.192558 6.80334C0.506836 6.75136 0.577758 6.87654 1.1233 7.01211Z" fill="black"/>
<path d="M9.99401 1.3327C10.0064 1.2779 9.99927 1.21993 9.97397 1.17081C9.94866 1.12169 9.90718 1.08519 9.85812 1.06888L8.8985 0.749554C8.78353 0.71128 8.66308 0.793699 8.64367 0.925154C8.55714 1.51129 8.42734 2.01442 8.29926 2.41379C8.2117 2.68684 8.12497 2.91125 8.05338 3.08058C7.87348 3.01052 7.68835 2.97163 7.50235 2.97163C7.05669 2.97163 6.60624 3.1943 6.21208 3.74322C5.96046 4.09363 4.94771 6.87212 3.72277 7.46708C3.1429 7.74873 2.56952 7.84826 2.04891 7.84826C1.37052 7.84826 0.781667 7.67935 0.383879 7.52424C0.201399 7.45308 0.0419229 7.68321 0.153915 7.85842C0.58723 8.53638 1.53302 9.60072 3.32524 9.93255C3.5686 9.97753 3.81493 10.0001 4.06168 9.99997C6.20082 9.99997 8.11984 8.32802 8.97019 6.78352C9.50006 5.82108 9.71045 4.701 9.07703 3.87158C9.19826 3.66552 9.30799 3.43923 9.40626 3.20767C9.7165 2.47677 9.91243 1.69392 9.99401 1.3327Z" fill="black"/>
</svg>
