<svg width="25" height="25" viewBox="0 0 25 25" fill="none" xmlns="http://www.w3.org/2000/svg">
<path d="M18.2327 0H6.76728C3.03574 0 0 3.03574 0 6.76727V18.2329C0 21.9642 3.03574 25 6.76728 25H18.2329C21.9643 25 25 21.9642 25 18.2329V6.76727C25 3.03574 21.9643 0 18.2327 0ZM23.5344 18.2329C23.5344 21.1561 21.1561 23.5343 18.2327 23.5343H6.76728C3.8439 23.5343 1.46563 21.1561 1.46563 18.2329V6.76727C1.46563 3.84389 3.8439 1.46562 6.76728 1.46562H18.2329C21.1561 1.46562 23.5344 3.84389 23.5344 6.76727V18.2329Z" fill="black"/>
<path d="M12.5001 5.66426C8.73077 5.66426 5.66431 8.73066 5.66431 12.5C5.66431 16.2693 8.73072 19.3357 12.5001 19.3357C16.2694 19.3357 19.3358 16.2693 19.3358 12.5C19.3358 8.73066 16.2694 5.66426 12.5001 5.66426ZM12.5001 17.8701C9.53912 17.8701 7.12993 15.4612 7.12993 12.5C7.12993 9.53906 9.53912 7.12988 12.5001 7.12988C15.4613 7.12988 17.8702 9.53906 17.8702 12.5C17.8702 15.4612 15.4613 17.8701 12.5001 17.8701ZM19.4993 3.23657C18.3854 3.23657 17.4794 4.14277 17.4794 5.25645C17.4794 6.37036 18.3854 7.27651 19.4993 7.27651C20.6132 7.27651 21.5193 6.37036 21.5193 5.25649C21.5193 4.14263 20.6132 3.23657 19.4993 3.23657ZM19.4993 5.81074C19.1937 5.81074 18.945 5.56201 18.945 5.25645C18.945 4.95073 19.1937 4.7022 19.4993 4.7022C19.805 4.7022 20.0537 4.95073 20.0537 5.25645C20.0537 5.56201 19.805 5.81074 19.4993 5.81074Z" fill="black"/>
</svg>
