<svg width="20" height="8" viewBox="0 0 20 8" fill="none" xmlns="http://www.w3.org/2000/svg">
<path d="M4.68801 7.95855C4.42203 7.95855 4.15604 7.79275 4.02305 7.50259C3.69056 6.75648 1.9284 3.60622 1.39643 2.81865V7.12953C1.39643 7.62694 1.09719 8 0.698215 8C0.299235 8 0 7.62694 0 7.12953V1.07772C0 0.497409 0.365732 0.0829019 0.79796 0.0829019C1.0307 0.0829019 1.23019 0.207254 1.39643 0.414508C1.52942 0.580311 3.79031 4.35233 4.02305 4.72539V0.953368C4.02305 0.455958 4.35553 0.0829019 4.72126 0.0829019C5.12024 0.0829019 5.41948 0.497409 5.41948 0.953368V7.00518C5.45273 7.54404 5.12024 7.95855 4.68801 7.95855ZM6.91565 7.50259V0.49741C6.91565 0.248705 7.08189 0.0414509 7.28138 0.0414509H10.573C10.9055 0.0414509 11.1714 0.373057 11.1714 0.787565C11.1714 1.20207 10.9055 1.53368 10.573 1.53368H8.31208V3.10881H10.2737C10.6062 3.10881 10.8722 3.44041 10.8722 3.85492C10.8722 4.26943 10.6062 4.60104 10.2737 4.60104H8.31208V6.50777H10.7725C11.1049 6.50777 11.3709 6.83938 11.3709 7.25389C11.3709 7.66839 11.1049 8 10.7725 8H7.28138C7.08189 7.95855 6.91565 7.75129 6.91565 7.50259ZM16.0922 0.911917C16.4579 0.911917 16.7572 1.20207 16.8569 1.61658C16.8902 1.74093 16.8902 1.82383 16.9234 1.94819C17.0231 2.32124 17.0896 2.73575 17.2226 3.15026L17.5219 4.39378C17.6216 4.80829 17.7214 5.18135 17.8211 5.5544C17.8876 5.18135 17.9873 4.72539 18.0538 4.26943C18.1203 3.81347 18.2201 3.35751 18.2866 2.8601C18.3531 2.36269 18.4196 1.90674 18.4861 1.40933C18.5193 1.20207 18.5526 0.953368 18.5858 0.746114C18.6523 0.331606 18.9515 0 19.284 0C19.7495 0 20.082 0.53886 19.9822 1.07772C19.816 2.03109 19.6165 3.02591 19.417 4.02073C19.1843 5.09845 18.9515 6.13471 18.7188 7.08808C18.5858 7.54404 18.2533 7.87565 17.8544 7.87565C17.4554 7.87565 17.1229 7.58549 16.9899 7.12953C16.8569 6.63212 16.7239 6.13472 16.5909 5.59585C16.3914 4.80829 16.1919 3.97927 15.9924 3.19171C15.793 3.97927 15.5935 4.80829 15.394 5.59585C15.261 6.13472 15.128 6.63212 14.995 7.12953C14.862 7.58549 14.5295 7.87565 14.1305 7.87565C13.7316 7.87565 13.3991 7.54404 13.2661 7.08808C13.0333 6.09326 12.8006 5.057 12.5679 4.02073C12.3684 3.02591 12.1689 2.07254 12.0026 1.11917C11.9029 0.53886 12.2686 0 12.7341 0C13.0998 0 13.3991 0.331606 13.4656 0.746114L13.5653 1.36788C13.6318 1.86528 13.7316 2.32124 13.7981 2.81865C13.8646 3.31606 13.9643 3.77202 14.0308 4.22798C14.0973 4.68394 14.197 5.09845 14.2968 5.51295C14.3965 5.1399 14.5295 4.72539 14.6293 4.31088L14.9285 3.06736C15.0282 2.65285 15.128 2.23834 15.1945 1.86528C15.2277 1.78238 15.2277 1.65803 15.261 1.57513C15.4272 1.20207 15.7265 0.911917 16.0922 0.911917Z" fill="#ED2D23"/>
</svg>
