<svg width="10" height="10" viewBox="0 0 10 10" fill="none" xmlns="http://www.w3.org/2000/svg">
<path d="M9.99401 1.3327C10.0064 1.2779 9.99927 1.21993 9.97397 1.17081C9.94866 1.12169 9.90718 1.08519 9.85812 1.06888L8.8985 0.749554C8.78353 0.71128 8.66308 0.793699 8.64367 0.925154C8.55714 1.51129 8.42734 2.01442 8.29926 2.41379C8.2117 2.68684 8.12497 2.91125 8.05338 3.08058C7.87348 3.01052 7.68835 2.97163 7.50235 2.97163C7.05669 2.97163 6.60624 3.1943 6.21208 3.74322C5.96046 4.09363 4.94771 6.87212 3.72277 7.46708C3.1429 7.74873 2.56952 7.84826 2.04891 7.84826C1.37052 7.84826 0.781667 7.67935 0.383879 7.52424C0.201399 7.45308 0.0419229 7.68321 0.153915 7.85842C0.58723 8.53638 1.53302 9.60072 3.32524 9.93255C3.5686 9.97753 3.81493 10.0001 4.06168 9.99997C6.20082 9.99997 8.11984 8.32802 8.97019 6.78352C9.50006 5.82108 9.71045 4.701 9.07703 3.87158C9.19826 3.66552 9.30799 3.43923 9.40626 3.20767C9.7165 2.47677 9.91243 1.69392 9.99401 1.3327Z" fill="black"/>
</svg>
