<svg width="20" height="20" viewBox="0 0 20 20" fill="none" xmlns="http://www.w3.org/2000/svg">
<path d="M19.576 7.33127L19.5677 7.3245L11.0432 0.323281C10.9755 0.268028 10.9007 0.218938 10.8201 0.176864L10.5746 0.0670415L10.4073 0.0212676H10.2845C10.0964 -0.0070892 9.90356 -0.0070892 9.71546 0.0212676H9.47L9.2803 0.103635C9.17459 0.150737 9.07702 0.209211 8.99019 0.277507L0.432241 7.3245C-0.140831 7.79081 -0.144544 8.54992 0.423977 9.01997L0.432241 9.02675C1.00991 9.47883 1.91871 9.47883 2.49644 9.02675L7.5955 4.85348C7.81549 4.67656 8.16873 4.67939 8.38443 4.85987C8.4848 4.94382 8.54191 5.05624 8.54389 5.17381V18.801C8.54384 19.4632 9.19819 20 10.0055 20C10.8127 20 11.4671 19.4633 11.4673 18.8012V5.17381C11.4716 4.92113 11.7248 4.71912 12.0329 4.72268C12.1762 4.72435 12.3133 4.77115 12.4156 4.85348L17.4924 9.02675C18.0716 9.48466 18.9886 9.48466 19.5678 9.02675C20.1408 8.56043 20.1445 7.80133 19.576 7.33127Z" fill="white"/>
</svg>
